<?xml version="1.0" encoding="UTF-8"?>
<svg width="25px" height="16px" viewBox="0 0 25 16" version="1.1" xmlns="http://www.w3.org/2000/svg" xmlns:xlink="http://www.w3.org/1999/xlink">
    <!-- Generator: sketchtool 55.1 (78136) - https://sketchapp.com -->
    <title>EFEDB069-18BA-4042-9E39-811EA1259974</title>
    <desc>Created with sketchtool.</desc>
    <g id="Page-1" stroke="none" stroke-width="1" fill="none" fill-rule="evenodd">
        <g id="Mobile-salvesta-intsident" transform="translate(-264.000000, -307.000000)" fill="#07357F" fill-rule="nonzero">
            <g id="Group-2" transform="translate(94.300781, 303.000000)">
                <path d="M184.008333,4 L171.991667,4 C170.891667,4 170,4.89166667 170,5.99166667 L170,18.0083333 C170,19.1083333 170.891667,20 171.991667,20 L184.008333,20 C185.108333,20 186,19.1083333 186,18.0083333 L186,5.99166667 C186,4.89166667 185.108333,4 184.008333,4 Z M191.9,5.57083333 L187.333333,8.72083333 L187.333333,15.2791667 L191.9,18.425 C192.783333,19.0333333 194,18.4125 194,17.35 L194,6.64583333 C194,5.5875 192.7875,4.9625 191.9,5.57083333 Z" id="cam"></path>
            </g>
        </g>
    </g>
</svg>