<?xml version="1.0" encoding="UTF-8"?>
<svg width="14px" height="11px" viewBox="0 0 14 11" version="1.1" xmlns="http://www.w3.org/2000/svg" xmlns:xlink="http://www.w3.org/1999/xlink">
    <!-- Generator: sketchtool 55.1 (78136) - https://sketchapp.com -->
    <title>22C843A3-AB62-404C-B262-6F697A2A857F</title>
    <desc>Created with sketchtool.</desc>
    <g id="Page-1" stroke="none" stroke-width="1" fill="none" fill-rule="evenodd">
        <g id="Mobile-info" transform="translate(-20.000000, -420.000000)" fill="#F07561" fill-rule="nonzero">
            <g id="info-block" transform="translate(20.000000, 328.000000)">
                <path d="M13.7347656,95.4671875 C13.8414063,95.3824219 14,95.4617188 14,95.5957031 L14,101.1875 C14,101.912109 13.4121094,102.5 12.6875,102.5 L1.3125,102.5 C0.587890625,102.5 0,101.912109 0,101.1875 L0,95.5984375 C0,95.4617188 0.155859375,95.3851562 0.265234375,95.4699219 C0.877734375,95.9457031 1.68984375,96.55 4.47890625,98.5761719 C5.05585937,98.9972656 6.02929688,99.8832031 7,99.8777344 C7.97617187,99.8859375 8.96875,98.9808594 9.52382812,98.5761719 C12.3128906,96.55 13.1222656,95.9429688 13.7347656,95.4671875 Z M7,99 C7.634375,99.0109375 8.54765625,98.2015625 9.00703125,97.8679688 C12.6355469,95.2347656 12.9117188,95.0050781 13.7484375,94.3488281 C13.9070313,94.2257812 14,94.034375 14,93.8320312 L14,93.3125 C14,92.5878906 13.4121094,92 12.6875,92 L1.3125,92 C0.587890625,92 0,92.5878906 0,93.3125 L0,93.8320312 C0,94.034375 0.09296875,94.2230469 0.2515625,94.3488281 C1.08828125,95.0023437 1.36445313,95.2347656 4.99296875,97.8679688 C5.45234375,98.2015625 6.365625,99.0109375 7,99 Z" id="Shape"></path>
            </g>
        </g>
    </g>
</svg>