<?xml version="1.0" encoding="UTF-8"?>
<svg width="17px" height="24px" viewBox="0 0 17 24" version="1.1" xmlns="http://www.w3.org/2000/svg" xmlns:xlink="http://www.w3.org/1999/xlink">
    <!-- Generator: sketchtool 55.1 (78136) - https://sketchapp.com -->
    <title>513F4661-8875-49CF-9C28-EE26E41624A3</title>
    <desc>Created with sketchtool.</desc>
    <g id="Page-1" stroke="none" stroke-width="1" fill="none" fill-rule="evenodd">
        <g id="Mobile-salvesta-intsident" transform="translate(-179.000000, -303.000000)" fill="#07357F" fill-rule="nonzero">
            <g id="Group-2" transform="translate(94.300781, 303.000000)">
                <path d="M93.25,16.5 C95.7353125,16.5 97.75,14.4853125 97.75,12 L97.75,4.5 C97.75,2.0146875 95.7353125,0 93.25,0 C90.7646875,0 88.75,2.0146875 88.75,4.5 L88.75,12 C88.75,14.4853125 90.7646875,16.5 93.25,16.5 Z M100.75,9 L100,9 C99.585625,9 99.25,9.335625 99.25,9.75 L99.25,12 C99.25,15.50625 96.2270312,18.3196875 92.6504688,17.9709375 C89.5332813,17.6667188 87.25,14.8645313 87.25,11.7328125 L87.25,9.75 C87.25,9.335625 86.914375,9 86.5,9 L85.75,9 C85.335625,9 85,9.335625 85,9.75 L85,11.6325 C85,15.834375 87.9985937,19.5801563 92.125,20.1492188 L92.125,21.75 L89.5,21.75 C89.085625,21.75 88.75,22.085625 88.75,22.5 L88.75,23.25 C88.75,23.664375 89.085625,24 89.5,24 L97,24 C97.414375,24 97.75,23.664375 97.75,23.25 L97.75,22.5 C97.75,22.085625 97.414375,21.75 97,21.75 L94.375,21.75 L94.375,20.1670313 C98.3926563,19.6157813 101.5,16.1671875 101.5,12 L101.5,9.75 C101.5,9.335625 101.164375,9 100.75,9 Z" id="Shape"></path>
            </g>
        </g>
    </g>
</svg>