<?xml version="1.0" encoding="UTF-8"?>
<svg width="16px" height="16px" viewBox="0 0 16 16" version="1.1" xmlns="http://www.w3.org/2000/svg" xmlns:xlink="http://www.w3.org/1999/xlink">
    <!-- Generator: sketchtool 55.1 (78136) - https://sketchapp.com -->
    <title>8CEAF291-7932-4815-AFEA-80810D549A0D</title>
    <desc>Created with sketchtool.</desc>
    <g id="Page-1" stroke="none" stroke-width="1" fill="none" fill-rule="evenodd">
        <g id="Mobile-info" transform="translate(-128.000000, -14.000000)" fill="#F07561" fill-rule="nonzero">
            <g id="telefonid" transform="translate(107.000000, 0.000000)">
                <path d="M36.4187618,14.7690723 L33.1688279,14.0190875 C32.8157101,13.9378392 32.4532175,14.1222104 32.3094704,14.4534537 L30.8095009,17.9533825 C30.6782536,18.2596263 30.7657518,18.618994 31.0251215,18.8283647 L32.918833,20.3783332 C31.7938559,22.7751594 29.8282709,24.7688689 27.3814457,25.9157205 L25.8314772,24.0220091 C25.6189815,23.7626393 25.2627388,23.6751411 24.956495,23.8063884 L21.4565662,25.3063579 C21.122198,25.4532299 20.9378268,25.8157226 21.0190751,26.1688404 L21.7690598,29.4187743 C21.8471833,29.7562674 22.1471772,30.0000124 22.500295,30.0000124 C30.5032572,30.0000124 37,23.5157694 37,15.5003074 C37,15.1503145 36.7593799,14.8471957 36.4187618,14.7690723 Z" id="Path"></path>
            </g>
        </g>
    </g>
</svg>