<?xml version="1.0" encoding="UTF-8"?>
<svg width="25px" height="19px" viewBox="0 0 25 19" version="1.1" xmlns="http://www.w3.org/2000/svg" xmlns:xlink="http://www.w3.org/1999/xlink">
    <!-- Generator: sketchtool 55.1 (78136) - https://sketchapp.com -->
    <title>5F65A4C3-C8A8-4FF2-B851-07D6CBEC7278</title>
    <desc>Created with sketchtool.</desc>
    <g id="Page-1" stroke="none" stroke-width="1" fill="none" fill-rule="evenodd">
        <g id="Mobile-salvesta-intsident" transform="translate(-95.000000, -306.000000)" fill="#07357F" fill-rule="nonzero">
            <g id="Group-2" transform="translate(94.300781, 303.000000)">
                <path d="M21,19 L21,19.6666667 C21,20.77125 20.1045833,21.6666667 19,21.6666667 L3,21.6666667 C1.89541667,21.6666667 1,20.77125 1,19.6666667 L1,9 C1,7.89541667 1.89541667,7 3,7 L3.66666667,7 L3.66666667,9 L3.25,9 C3.11192881,9 3,9.11192881 3,9.25 L3,19.4166667 C3,19.5547379 3.11192881,19.6666667 3.25,19.6666667 L18.75,19.6666667 C18.8880712,19.6666667 19,19.5547379 19,19.4166667 L19,19 L21,19 Z M22.75,5 L7.25,5 C7.11192881,5 7,5.11192881 7,5.25 L7,15.4166667 C7,15.5547379 7.11192881,15.6666667 7.25,15.6666667 L22.75,15.6666667 C22.8880712,15.6666667 23,15.5547379 23,15.4166667 L23,5.25 C23,5.11192881 22.8880712,5 22.75,5 Z M23,3 C24.1045833,3 25,3.89541667 25,5 L25,15.6666667 C25,16.77125 24.1045833,17.6666667 23,17.6666667 L7,17.6666667 C5.89541667,17.6666667 5,16.77125 5,15.6666667 L5,5 C5,3.89541667 5.89541667,3 7,3 L23,3 Z M12,7.66666667 C12,8.587125 11.2537917,9.33333333 10.3333333,9.33333333 C9.412875,9.33333333 8.66666667,8.587125 8.66666667,7.66666667 C8.66666667,6.74620833 9.412875,6 10.3333333,6 C11.2537917,6 12,6.74620833 12,7.66666667 Z M9,11.6666667 L10.6464583,10.0202083 C10.8417083,9.82495833 11.1582917,9.82495833 11.3535833,10.0202083 L13,11.6666667 L17.313125,7.35354167 C17.508375,7.15829167 17.8249583,7.15829167 18.02025,7.35354167 L21,10.3333333 L21,13.6666667 L9,13.6666667 L9,11.6666667 Z" id="img"></path>
            </g>
        </g>
    </g>
</svg>